<?xml version="1.0" encoding="UTF-8"?>
<svg xmlns="http://www.w3.org/2000/svg" width="1180" height="2292"><rect id="bgrect" x="0" y="0" width="1180" fill="#f4ede1" height="2292"></rect><g transform="translate(32,0)"><text x="0" y="48" font-family="Arial, Helvetica, sans-serif" font-size="12" letter-spacing="2px" font-weight="700" fill="#b3452e">PRECEDENT STUDY · VERIFIED SITE MODEL</text><text x="0" y="78" font-family="Georgia, 'Times New Roman', serif" font-size="26" fill="#2b241c">Jami' al-'Adiliyya, Aleppo — Damage Assessment, CAD Geometry</text><text x="0" y="111" font-family="Georgia, 'Times New Roman', serif" font-size="26" fill="#2b241c">&amp; Real Site Conditions</text><text x="0" y="148" font-family="Arial, Helvetica, sans-serif" font-size="13.5" fill="#79695a">Rebuilt strictly from primary sources: the 2019 Rapid Damage Assessment, the site's CAD survey (FLS1615),</text><text x="0" y="167" font-family="Arial, Helvetica, sans-serif" font-size="13.5" fill="#79695a">and live pulls from NOAA, NASA, and open elevation/astronomy APIs. No estimated values — where a real value</text><text x="0" y="186" font-family="Arial, Helvetica, sans-serif" font-size="13.5" fill="#79695a">could not be sourced (air quality), the layer is omitted rather than approximated.</text><line x1="0" y1="217" x2="1116" y2="217" stroke="#d9cdb8"></line></g><g transform="translate(32,247)"><text x="0" y="0" font-family="Georgia, 'Times New Roman', serif" font-size="17" fill="#2b241c">Documented Timeline, 1556–2019</text><text x="0" y="20" font-family="Arial, Helvetica, sans-serif" font-size="12" fill="#79695a">Every point is a dated, credited photograph or document cited in the Rapid Damage Assessment report, plus</text><text x="0" y="36" font-family="Arial, Helvetica, sans-serif" font-size="12" fill="#79695a">two construction dates corroborated by Wikipedia.</text></g><g transform="translate(32,309)"><rect width="1116" height="294" fill="#fbf7ef" rx="10"></rect><g transform="translate(170,20)"><line x1="19.00702051510212" x2="19.00702051510212" y1="0" y2="240" stroke="#d9cdb8" stroke-opacity="0.5"></line><text x="19.00702051510212" y="256" text-anchor="middle" font-size="10" fill="#79695a">1550</text><line x1="114.02651371159676" x2="114.02651371159676" y1="0" y2="240" stroke="#d9cdb8" stroke-opacity="0.5"></line><text x="114.02651371159676" y="256" text-anchor="middle" font-size="10" fill="#79695a">1600</text><line x1="209.05121003443006" x2="209.05121003443006" y1="0" y2="240" stroke="#d9cdb8" stroke-opacity="0.5"></line><text x="209.05121003443006" y="256" text-anchor="middle" font-size="10" fill="#79695a">1650</text><line x1="304.0707032309247" x2="304.0707032309247" y1="0" y2="240" stroke="#d9cdb8" stroke-opacity="0.5"></line><text x="304.0707032309247" y="256" text-anchor="middle" font-size="10" fill="#79695a">1700</text><line x1="399.09019642741936" x2="399.09019642741936" y1="0" y2="240" stroke="#d9cdb8" stroke-opacity="0.5"></line><text x="399.09019642741936" y="256" text-anchor="middle" font-size="10" fill="#79695a">1750</text><line x1="494.10968962391394" x2="494.10968962391394" y1="0" y2="240" stroke="#d9cdb8" stroke-opacity="0.5"></line><text x="494.10968962391394" y="256" text-anchor="middle" font-size="10" fill="#79695a">1800</text><line x1="589.1291828204087" x2="589.1291828204087" y1="0" y2="240" stroke="#d9cdb8" stroke-opacity="0.5"></line><text x="589.1291828204087" y="256" text-anchor="middle" font-size="10" fill="#79695a">1850</text><line x1="684.1486903495893" x2="684.1486903495893" y1="0" y2="240" stroke="#d9cdb8" stroke-opacity="0.5"></line><text x="684.1486903495893" y="256" text-anchor="middle" font-size="10" fill="#79695a">1900</text><line x1="779.1681835460839" x2="779.1681835460839" y1="0" y2="240" stroke="#d9cdb8" stroke-opacity="0.5"></line><text x="779.1681835460839" y="256" text-anchor="middle" font-size="10" fill="#79695a">1950</text><line x1="874.1876767425786" x2="874.1876767425786" y1="0" y2="240" stroke="#d9cdb8" stroke-opacity="0.5"></line><text x="874.1876767425786" y="256" text-anchor="middle" font-size="10" fill="#79695a">2000</text><text x="-8" y="66" text-anchor="end" font-size="11" fill="#2b241c">Construction</text><text x="-8" y="108" text-anchor="end" font-size="11" fill="#2b241c">Documentation / recognition</text><text x="-8" y="150" text-anchor="end" font-size="11" fill="#2b241c">Dated damage photograph</text><text x="-8" y="192" text-anchor="end" font-size="11" fill="#2b241c">On-site intervention</text><circle cx="30.407070323092466" cy="62" r="6" fill="#c39a4b" stroke="#fff" stroke-width="1.2"></circle><circle cx="49.41409083819459" cy="62" r="6" fill="#c39a4b" stroke="#fff" stroke-width="1.2"></circle><circle cx="828.5770712579399" cy="104" r="6" fill="#3f6d8e" stroke="#fff" stroke-width="1.2"></circle><circle cx="847.5840917730419" cy="104" r="6" fill="#3f6d8e" stroke="#fff" stroke-width="1.2"></circle><circle cx="893.1946972576807" cy="104" r="6" fill="#3f6d8e" stroke="#fff" stroke-width="1.2"></circle><circle cx="898.1730051791184" cy="104" r="6" fill="#3f6d8e" stroke="#fff" stroke-width="1.2"></circle><circle cx="901.5819201186597" cy="146" r="6" fill="#b3452e" stroke="#fff" stroke-width="1.2"></circle><circle cx="902.6956059520624" cy="146" r="6" fill="#b3452e" stroke="#fff" stroke-width="1.2"></circle><circle cx="906.33779438912" cy="146" r="6" fill="#b3452e" stroke="#fff" stroke-width="1.2"></circle><circle cx="908.3982324192268" cy="146" r="6" fill="#b3452e" stroke="#fff" stroke-width="1.2"></circle><circle cx="909.6623753225889" cy="146" r="6" fill="#b3452e" stroke="#fff" stroke-width="1.2"></circle><circle cx="910.7654381063835" cy="146" r="6" fill="#b3452e" stroke="#fff" stroke-width="1.2"></circle><circle cx="910.7654381063835" cy="104" r="6" fill="#3f6d8e" stroke="#fff" stroke-width="1.2"></circle><circle cx="910.7654381063835" cy="188" r="6" fill="#4f9c72" stroke="#fff" stroke-width="1.2"></circle><circle cx="911.206836657446" cy="104" r="6" fill="#3f6d8e" stroke="#fff" stroke-width="1.2"></circle></g></g><g transform="translate(32,617)"><rect x="0" y="-10" width="11" height="11" rx="3" fill="#c39a4b"></rect><text x="17" y="0" font-size="11" fill="#79695a">Construction (cited)</text><rect x="260" y="-10" width="11" height="11" rx="3" fill="#3f6d8e"></rect><text x="277" y="0" font-size="11" fill="#79695a">Documentation / recognition</text><rect x="520" y="-10" width="11" height="11" rx="3" fill="#b3452e"></rect><text x="537" y="0" font-size="11" fill="#79695a">Dated damage photograph</text><rect x="780" y="-10" width="11" height="11" rx="3" fill="#4f9c72"></rect><text x="797" y="0" font-size="11" fill="#79695a">On-site intervention</text></g><g transform="translate(32,663)"><text x="0" y="0" font-family="Georgia, 'Times New Roman', serif" font-size="17" fill="#2b241c">Damage Zones as of 25.06.2019</text><text x="0" y="20" font-family="Arial, Helvetica, sans-serif" font-size="12" fill="#79695a">Condition class (CC) and urgency class (UC) as assigned in the report (BS EN 16096:2012). Deadlines below are the</text><text x="0" y="36" font-family="Arial, Helvetica, sans-serif" font-size="12" fill="#79695a">report's own stated response windows (UC3 = 3 months, UC2 = 1 year).</text></g><g transform="translate(32,725)"><rect width="361.3333333333333" height="150" fill="#fbf7ef" stroke="#d9cdb8" rx="10"></rect><text x="18" y="26" font-family="Georgia, serif" font-size="14" fill="#2b241c">Minaret</text><text x="18" y="54" font-size="22" font-weight="700" fill="#b3452e">30%</text><text x="18" y="68" font-size="9.5" fill="#79695a" letter-spacing="0.3px">OVERALL LOSS (REPORT FIGURE)</text><text x="18" y="88" font-size="11" fill="#2b241c">Condition:</text><text x="90" y="88" font-size="11" fill="#79695a">CC3 / UC3</text><text x="18" y="104" font-size="11" fill="#2b241c">Deadline:</text><text x="90" y="104" font-size="11" fill="#79695a">2019-09-25</text><text x="18" y="120" font-size="9.8" fill="#79695a">Masonry loss in shaft 25 sq m; stairway</text><text x="18" y="133" font-size="9.8" fill="#79695a">loss 50%; gallery damage 30%; metal spire</text><text x="18" y="146" font-size="9.8" fill="#79695a">cover loss 50%</text></g><g transform="translate(409.3333333333333,725)"><rect width="361.3333333333333" height="150" fill="#fbf7ef" stroke="#d9cdb8" rx="10"></rect><text x="18" y="26" font-family="Georgia, serif" font-size="14" fill="#2b241c">Central dome</text><text x="18" y="54" font-size="22" font-weight="700" fill="#b3452e">90%</text><text x="18" y="68" font-size="9.5" fill="#79695a" letter-spacing="0.3px">OVERALL LOSS (REPORT FIGURE)</text><text x="18" y="88" font-size="11" fill="#2b241c">Condition:</text><text x="90" y="88" font-size="11" fill="#79695a">CC3 / UC3</text><text x="18" y="104" font-size="11" fill="#2b241c">Deadline:</text><text x="90" y="104" font-size="11" fill="#79695a">2019-09-25</text><text x="18" y="120" font-size="9.8" fill="#79695a">Collapsed dome surface 600 sq m; rubble</text><text x="18" y="133" font-size="9.8" fill="#79695a">remains in prayer hall</text></g><g transform="translate(786.6666666666666,725)"><rect width="361.3333333333333" height="150" fill="#fbf7ef" stroke="#d9cdb8" rx="10"></rect><text x="18" y="26" font-family="Georgia, serif" font-size="14" fill="#2b241c">Portico</text><text x="18" y="54" font-size="22" font-weight="700" fill="#b3452e">40%</text><text x="18" y="68" font-size="9.5" fill="#79695a" letter-spacing="0.3px">OVERALL LOSS (REPORT FIGURE)</text><text x="18" y="88" font-size="11" fill="#2b241c">Condition:</text><text x="90" y="88" font-size="11" fill="#79695a">CC3 / UC2</text><text x="18" y="104" font-size="11" fill="#2b241c">Deadline:</text><text x="90" y="104" font-size="11" fill="#79695a">2020-06-25</text><text x="18" y="120" font-size="9.8" fill="#79695a">Collapsed ceiling surface 85 sq m; 3</text><text x="18" y="133" font-size="9.8" fill="#79695a">columns and 4 arches lost</text></g><g transform="translate(32,895)"><rect width="1116" height="152" fill="#fbf7ef" rx="10"></rect><g transform="translate(140,20)"><line x1="13.078341013824886" x2="13.078341013824886" y1="0" y2="102" stroke="#d9cdb8" stroke-opacity="0.5"></line><text x="13.078341013824886" y="120" text-anchor="middle" font-size="10" fill="#79695a">Jul 2019</text><line x1="213.61290322580643" x2="213.61290322580643" y1="0" y2="102" stroke="#d9cdb8" stroke-opacity="0.5"></line><text x="213.61290322580643" y="120" text-anchor="middle" font-size="10" fill="#79695a">Oct 2019</text><line x1="414.238287250384" x2="414.238287250384" y1="0" y2="102" stroke="#d9cdb8" stroke-opacity="0.5"></line><text x="414.238287250384" y="120" text-anchor="middle" font-size="10" fill="#79695a">Jan 2020</text><line x1="612.5023041474655" x2="612.5023041474655" y1="0" y2="102" stroke="#d9cdb8" stroke-opacity="0.5"></line><text x="612.5023041474655" y="120" text-anchor="middle" font-size="10" fill="#79695a">Apr 2020</text><line x1="810.8571428571428" x2="810.8571428571428" y1="0" y2="102" stroke="#d9cdb8" stroke-opacity="0.5"></line><text x="810.8571428571428" y="120" text-anchor="middle" font-size="10" fill="#79695a">Jul 2020</text><text x="-10" y="24.55223880597015" text-anchor="end" font-size="12" fill="#2b241c">Minaret</text><rect x="0" y="10.656716417910445" height="19.791044776119406" width="200.17127496159753" rx="3" fill="#b3452e"></rect><text x="206.17127496159753" y="24.55223880597015" font-size="10" fill="#79695a">UC3 deadline</text><text x="-10" y="55" text-anchor="end" font-size="12" fill="#2b241c">Central dome</text><rect x="0" y="41.1044776119403" height="19.791044776119406" width="200.17127496159753" rx="3" fill="#b3452e"></rect><text x="206.17127496159753" y="55" font-size="10" fill="#79695a">UC3 deadline</text><text x="-10" y="85.44776119402985" text-anchor="end" font-size="12" fill="#2b241c">Portico</text><rect x="0" y="71.55223880597015" height="19.791044776119406" width="797.4155145929338" rx="3" fill="#3f6d8e"></rect><text x="803.4155145929338" y="85.44776119402985" font-size="10" fill="#79695a">UC2 deadline</text><line x1="0" x2="0" y1="-4" y2="106" stroke="#2b241c" stroke-width="1.4"></line><text x="0" y="-8" text-anchor="middle" font-size="10" fill="#2b241c">Report issued 25.06.2019</text></g></g><g transform="translate(32,1081)"><text x="0" y="0" font-family="Georgia, 'Times New Roman', serif" font-size="17" fill="#2b241c">Real Temperature Record — NOAA Station SYE00147760 ("ALEPPO, SY")</text><text x="0" y="20" font-family="Arial, Helvetica, sans-serif" font-size="12" fill="#79695a">Ground station 2.6km from the site. Every point is an actual daily reading. Densely reported before the war, silent</text><text x="0" y="36" font-family="Arial, Helvetica, sans-serif" font-size="12" fill="#79695a">through the conflict, sparse afterward.</text></g><g transform="translate(32,1143)"><rect width="1116" height="30" rx="6" fill="#f6e6e2" stroke="#b23b3b" stroke-dasharray="4,3"></rect><text x="14" y="19" font-size="11.5" fill="#b23b3b">⚠ Station silent 2012-11-14 → 2019-11-20 (2,562 days) — spans the entire documented conflict and damage period.</text></g><g transform="translate(32,1187)"><rect width="1116" height="304" fill="#fbf7ef" rx="10"></rect><g transform="translate(50,20)"><line x1="0" x2="1036" y1="250" y2="250" stroke="#d9cdb8" stroke-opacity="0.5"></line><text x="-8" y="254" text-anchor="end" font-size="10" fill="#79695a">-10°C</text><line x1="0" x2="1036" y1="206.89655172413794" y2="206.89655172413794" stroke="#d9cdb8" stroke-opacity="0.5"></line><text x="-8" y="210.89655172413794" text-anchor="end" font-size="10" fill="#79695a">0°C</text><line x1="0" x2="1036" y1="163.79310344827584" y2="163.79310344827584" stroke="#d9cdb8" stroke-opacity="0.5"></line><text x="-8" y="167.79310344827584" text-anchor="end" font-size="10" fill="#79695a">10°C</text><line x1="0" x2="1036" y1="120.68965517241378" y2="120.68965517241378" stroke="#d9cdb8" stroke-opacity="0.5"></line><text x="-8" y="124.68965517241378" text-anchor="end" font-size="10" fill="#79695a">20°C</text><line x1="0" x2="1036" y1="77.58620689655172" y2="77.58620689655172" stroke="#d9cdb8" stroke-opacity="0.5"></line><text x="-8" y="81.58620689655172" text-anchor="end" font-size="10" fill="#79695a">30°C</text><line x1="0" x2="1036" y1="34.482758620689665" y2="34.482758620689665" stroke="#d9cdb8" stroke-opacity="0.5"></line><text x="-8" y="38.482758620689665" text-anchor="end" font-size="10" fill="#79695a">40°C</text><text x="0.05375674553756746" y="268" text-anchor="middle" font-size="10" fill="#79695a">2010</text><text x="94.23557492735574" y="268" text-anchor="middle" font-size="10" fill="#79695a">2011</text><text x="188.41739310917393" y="268" text-anchor="middle" font-size="10" fill="#79695a">2012</text><text x="282.8572436695724" y="268" text-anchor="middle" font-size="10" fill="#79695a">2013</text><text x="377.03906185139067" y="268" text-anchor="middle" font-size="10" fill="#79695a">2014</text><text x="471.2208800332088" y="268" text-anchor="middle" font-size="10" fill="#79695a">2015</text><text x="565.402698215027" y="268" text-anchor="middle" font-size="10" fill="#79695a">2016</text><text x="659.8425487754255" y="268" text-anchor="middle" font-size="10" fill="#79695a">2017</text><text x="754.0243669572436" y="268" text-anchor="middle" font-size="10" fill="#79695a">2018</text><text x="848.2061851390619" y="268" text-anchor="middle" font-size="10" fill="#79695a">2019</text><text x="942.3880033208801" y="268" text-anchor="middle" font-size="10" fill="#79695a">2020</text><rect x="270.4716894977169" y="0" width="661.0789539227897" height="250" fill="#f6e2e0"></rect><rect x="270.4716894977169" y="0" width="661.0789539227897" height="250" fill="none" stroke="#b23b3b" stroke-dasharray="5,3"></rect><text x="601.0111664591117" y="125" text-anchor="middle" font-size="11" fill="#b23b3b" font-style="italic">no real data exists here</text><path d="M0,140.086L0.258,118.966L3.612,150.431L7.741,149.138L11.611,135.776L14.966,158.19L18.836,93.534L22.965,118.966L26.835,94.397L30.706,101.724M38.963,38.362ZM46.446,57.328L50.316,45.69L54.445,11.207L54.703,15.517L58.315,24.569L62.444,52.586M70.185,56.034L74.055,84.052L78.184,114.224L78.442,110.776L82.054,97.845L85.925,108.621L86.183,108.19L89.795,160.776M196.105,172.845L199.975,144.397L203.588,157.759L207.458,146.121L211.587,133.19L215.457,90.086L219.328,76.293L223.198,94.828L227.327,80.603L227.585,81.034L231.197,18.534L231.455,15.948L233.777,59.483M238.938,31.897L243.067,46.983L243.325,41.379M259.839,76.293L262.935,68.534M932.529,126.724L932.787,132.759L933.819,143.966L937.432,162.069L937.948,162.931L938.464,131.034L940.27,156.034L941.302,172.414L941.56,167.241L942.076,159.483L943.108,162.069L946.721,166.379L952.398,191.379L956.268,135.345L961.945,131.466L969.686,97.414L976.911,53.879L977.685,45.259L983.103,37.931L987.49,51.724L990.586,36.638L994.973,30.172L996.005,24.138L1004.778,26.293L1006.068,17.241L1011.745,68.966L1015.873,70.69L1019.228,72.414L1023.356,112.069L1028.001,137.931L1032.904,139.655L1036,146.552" fill="none" stroke="#b3452e" stroke-width="1.6" opacity="0.85"></path><circle cx="0" cy="140.08620689655172" r="2.2" fill="#b3452e"></circle><circle cx="0.2580323785803238" cy="118.96551724137933" r="2.2" fill="#b3452e"></circle><circle cx="3.612453300124533" cy="150.43103448275863" r="2.2" fill="#b3452e"></circle><circle cx="7.740971357409714" cy="149.13793103448276" r="2.2" fill="#b3452e"></circle><circle cx="11.61145703611457" cy="135.77586206896552" r="2.2" fill="#b3452e"></circle><circle cx="14.96587795765878" cy="158.18965517241378" r="2.2" fill="#b3452e"></circle><circle cx="18.836363636363636" cy="93.5344827586207" r="2.2" fill="#b3452e"></circle><circle cx="22.964881693648817" cy="118.96551724137933" r="2.2" fill="#b3452e"></circle><circle cx="26.835367372353673" cy="94.39655172413791" r="2.2" fill="#b3452e"></circle><circle cx="30.70585305105853" cy="101.72413793103449" r="2.2" fill="#b3452e"></circle><circle cx="38.962889165628894" cy="38.362068965517246" r="2.2" fill="#b3452e"></circle><circle cx="46.44582814445828" cy="57.32758620689654" r="2.2" fill="#b3452e"></circle><circle cx="50.316313823163135" cy="45.6896551724138" r="2.2" fill="#b3452e"></circle><circle cx="54.44483188044832" cy="11.206896551724132" r="2.2" fill="#b3452e"></circle><circle cx="54.702864259028644" cy="15.517241379310349" r="2.2" fill="#b3452e"></circle><circle cx="58.31531755915318" cy="24.568965517241388" r="2.2" fill="#b3452e"></circle><circle cx="62.443835616438356" cy="52.586206896551744" r="2.2" fill="#b3452e"></circle><circle cx="70.18480697384807" cy="56.03448275862069" r="2.2" fill="#b3452e"></circle><circle cx="74.05529265255294" cy="84.05172413793102" r="2.2" fill="#b3452e"></circle><circle cx="78.18381070983811" cy="114.22413793103448" r="2.2" fill="#b3452e"></circle><circle cx="78.44184308841844" cy="110.77586206896554" r="2.2" fill="#b3452e"></circle><circle cx="82.05429638854297" cy="97.84482758620692" r="2.2" fill="#b3452e"></circle><circle cx="85.92478206724782" cy="108.62068965517244" r="2.2" fill="#b3452e"></circle><circle cx="86.18281444582814" cy="108.18965517241381" r="2.2" fill="#b3452e"></circle><circle cx="89.79526774595269" cy="160.77586206896552" r="2.2" fill="#b3452e"></circle><circle cx="196.10460772104608" cy="172.8448275862069" r="2.2" fill="#b3452e"></circle><circle cx="199.97509339975093" cy="144.39655172413794" r="2.2" fill="#b3452e"></circle><circle cx="203.58754669987547" cy="157.75862068965517" r="2.2" fill="#b3452e"></circle><circle cx="207.45803237858033" cy="146.1206896551724" r="2.2" fill="#b3452e"></circle><circle cx="211.58655043586552" cy="133.18965517241378" r="2.2" fill="#b3452e"></circle><circle cx="215.45703611457037" cy="90.08620689655173" r="2.2" fill="#b3452e"></circle><circle cx="219.32752179327522" cy="76.29310344827586" r="2.2" fill="#b3452e"></circle><circle cx="223.19800747198008" cy="94.82758620689654" r="2.2" fill="#b3452e"></circle><circle cx="227.32652552926524" cy="80.60344827586208" r="2.2" fill="#b3452e"></circle><circle cx="227.58455790784558" cy="81.03448275862068" r="2.2" fill="#b3452e"></circle><circle cx="231.19701120797012" cy="18.534482758620683" r="2.2" fill="#b3452e"></circle><circle cx="231.45504358655043" cy="15.948275862068984" r="2.2" fill="#b3452e"></circle><circle cx="233.77733499377334" cy="59.48275862068964" r="2.2" fill="#b3452e"></circle><circle cx="238.93798256537983" cy="31.89655172413791" r="2.2" fill="#b3452e"></circle><circle cx="243.06650062266502" cy="46.98275862068965" r="2.2" fill="#b3452e"></circle><circle cx="243.32453300124533" cy="41.37931034482759" r="2.2" fill="#b3452e"></circle><circle cx="259.83860523038607" cy="76.29310344827586" r="2.2" fill="#b3452e"></circle><circle cx="262.9349937733499" cy="68.53448275862067" r="2.2" fill="#b3452e"></circle><circle cx="932.5290161892901" cy="126.72413793103449" r="2.2" fill="#b3452e"></circle><circle cx="932.7870485678706" cy="132.75862068965517" r="2.2" fill="#b3452e"></circle><circle cx="933.8191780821917" cy="143.9655172413793" r="2.2" fill="#b3452e"></circle><circle cx="937.4316313823163" cy="162.06896551724137" r="2.2" fill="#b3452e"></circle><circle cx="937.9476961394769" cy="162.93103448275863" r="2.2" fill="#b3452e"></circle><circle cx="938.4637608966376" cy="131.03448275862067" r="2.2" fill="#b3452e"></circle><circle cx="940.2699875466999" cy="156.0344827586207" r="2.2" fill="#b3452e"></circle><circle cx="941.3021170610211" cy="172.41379310344828" r="2.2" fill="#b3452e"></circle><circle cx="941.5601494396014" cy="167.24137931034483" r="2.2" fill="#b3452e"></circle><circle cx="942.0762141967621" cy="159.48275862068968" r="2.2" fill="#b3452e"></circle><circle cx="943.1083437110834" cy="162.06896551724137" r="2.2" fill="#b3452e"></circle><circle cx="946.720797011208" cy="166.3793103448276" r="2.2" fill="#b3452e"></circle><circle cx="952.397509339975" cy="191.3793103448276" r="2.2" fill="#b3452e"></circle><circle cx="956.2679950186799" cy="135.3448275862069" r="2.2" fill="#b3452e"></circle><circle cx="961.9447073474471" cy="131.4655172413793" r="2.2" fill="#b3452e"></circle><circle cx="969.6856787048569" cy="97.41379310344827" r="2.2" fill="#b3452e"></circle><circle cx="976.9105853051058" cy="53.879310344827594" r="2.2" fill="#b3452e"></circle><circle cx="977.6846824408468" cy="45.25862068965517" r="2.2" fill="#b3452e"></circle><circle cx="983.1033623910337" cy="37.93103448275861" r="2.2" fill="#b3452e"></circle><circle cx="987.4899128268992" cy="51.72413793103448" r="2.2" fill="#b3452e"></circle><circle cx="990.586301369863" cy="36.63793103448276" r="2.2" fill="#b3452e"></circle><circle cx="994.9728518057285" cy="30.172413793103452" r="2.2" fill="#b3452e"></circle><circle cx="996.0049813200498" cy="24.13793103448275" r="2.2" fill="#b3452e"></circle><circle cx="1004.7780821917809" cy="26.293103448275872" r="2.2" fill="#b3452e"></circle><circle cx="1006.0682440846824" cy="17.241379310344833" r="2.2" fill="#b3452e"></circle><circle cx="1011.7449564134496" cy="68.9655172413793" r="2.2" fill="#b3452e"></circle><circle cx="1015.8734744707348" cy="70.6896551724138" r="2.2" fill="#b3452e"></circle><circle cx="1019.227895392279" cy="72.41379310344826" r="2.2" fill="#b3452e"></circle><circle cx="1023.3564134495642" cy="112.06896551724138" r="2.2" fill="#b3452e"></circle><circle cx="1028.00099626401" cy="137.9310344827586" r="2.2" fill="#b3452e"></circle><circle cx="1032.903611457036" cy="139.6551724137931" r="2.2" fill="#b3452e"></circle><circle cx="1036" cy="146.55172413793105" r="2.2" fill="#b3452e"></circle><path d="M0,156.897L0.258,143.103L3.612,162.069L7.741,168.534L11.611,152.155L14.966,166.81L18.836,131.034L22.965,146.983L26.835,127.586L30.706,131.034L34.576,93.534L38.705,83.621L38.963,73.707L42.575,99.569L46.446,89.655L50.316,78.879L54.445,53.879L54.703,50.431L58.315,60.776L62.444,82.759L66.314,91.81L70.185,87.069L74.055,107.328L78.184,145.69L78.442,149.138L82.054,133.19L85.925,153.879L86.183,152.155L89.795,174.569L93.924,180.603L188.364,177.586L191.976,167.672L196.105,179.741L199.975,170.259L203.588,179.741L207.458,165.517L211.587,158.19L215.457,127.586L219.328,105.172L223.198,118.534L227.327,111.638L227.585,110.776L231.197,58.621L231.455,50.431L233.777,87.5L235.067,80.172L238.938,64.224L243.067,75L243.325,74.569L246.937,87.5L250.033,85.776L259.839,94.397L262.935,108.621L266.289,131.897L270.418,144.397L931.497,158.621L932.529,158.621L932.787,159.483L933.819,160.345L937.432,166.379L937.948,168.534L938.464,166.81L940.27,171.121L941.302,181.466L941.56,173.707L942.076,172.845L943.108,173.276L946.721,177.155L952.398,203.879L956.268,154.741L961.945,153.448L969.686,133.19L976.911,89.655L977.685,69.828L983.103,75.862L987.49,100L990.586,68.534L994.973,67.672L996.005,61.207L1004.778,63.793L1006.068,57.328L1011.745,95.259L1015.873,107.328L1019.228,112.931L1023.356,138.362L1028.001,165.086L1032.904,155.172L1036,179.31" fill="none" stroke="#c39a4b" stroke-width="1.6" opacity="0.85"></path><circle cx="0" cy="156.8965517241379" r="2.2" fill="#c39a4b"></circle><circle cx="0.2580323785803238" cy="143.10344827586206" r="2.2" fill="#c39a4b"></circle><circle cx="3.612453300124533" cy="162.06896551724137" r="2.2" fill="#c39a4b"></circle><circle cx="7.740971357409714" cy="168.5344827586207" r="2.2" fill="#c39a4b"></circle><circle cx="11.61145703611457" cy="152.1551724137931" r="2.2" fill="#c39a4b"></circle><circle cx="14.96587795765878" cy="166.81034482758622" r="2.2" fill="#c39a4b"></circle><circle cx="18.836363636363636" cy="131.03448275862067" r="2.2" fill="#c39a4b"></circle><circle cx="22.964881693648817" cy="146.98275862068965" r="2.2" fill="#c39a4b"></circle><circle cx="26.835367372353673" cy="127.58620689655173" r="2.2" fill="#c39a4b"></circle><circle cx="30.70585305105853" cy="131.03448275862067" r="2.2" fill="#c39a4b"></circle><circle cx="34.57633872976339" cy="93.5344827586207" r="2.2" fill="#c39a4b"></circle><circle cx="38.70485678704856" cy="83.62068965517241" r="2.2" fill="#c39a4b"></circle><circle cx="38.962889165628894" cy="73.70689655172413" r="2.2" fill="#c39a4b"></circle><circle cx="42.57534246575342" cy="99.5689655172414" r="2.2" fill="#c39a4b"></circle><circle cx="46.44582814445828" cy="89.65517241379308" r="2.2" fill="#c39a4b"></circle><circle cx="50.316313823163135" cy="78.87931034482756" r="2.2" fill="#c39a4b"></circle><circle cx="54.44483188044832" cy="53.879310344827594" r="2.2" fill="#c39a4b"></circle><circle cx="54.702864259028644" cy="50.431034482758626" r="2.2" fill="#c39a4b"></circle><circle cx="58.31531755915318" cy="60.775862068965516" r="2.2" fill="#c39a4b"></circle><circle cx="62.443835616438356" cy="82.75862068965517" r="2.2" fill="#c39a4b"></circle><circle cx="66.31432129514322" cy="91.81034482758618" r="2.2" fill="#c39a4b"></circle><circle cx="70.18480697384807" cy="87.06896551724138" r="2.2" fill="#c39a4b"></circle><circle cx="74.05529265255294" cy="107.32758620689656" r="2.2" fill="#c39a4b"></circle><circle cx="78.18381070983811" cy="145.68965517241378" r="2.2" fill="#c39a4b"></circle><circle cx="78.44184308841844" cy="149.13793103448276" r="2.2" fill="#c39a4b"></circle><circle cx="82.05429638854297" cy="133.18965517241378" r="2.2" fill="#c39a4b"></circle><circle cx="85.92478206724782" cy="153.87931034482762" r="2.2" fill="#c39a4b"></circle><circle cx="86.18281444582814" cy="152.1551724137931" r="2.2" fill="#c39a4b"></circle><circle cx="89.79526774595269" cy="174.5689655172414" r="2.2" fill="#c39a4b"></circle><circle cx="93.92378580323785" cy="180.60344827586206" r="2.2" fill="#c39a4b"></circle><circle cx="188.36363636363637" cy="177.58620689655172" r="2.2" fill="#c39a4b"></circle><circle cx="191.97608966376092" cy="167.67241379310343" r="2.2" fill="#c39a4b"></circle><circle cx="196.10460772104608" cy="179.74137931034483" r="2.2" fill="#c39a4b"></circle><circle cx="199.97509339975093" cy="170.25862068965517" r="2.2" fill="#c39a4b"></circle><circle cx="203.58754669987547" cy="179.74137931034483" r="2.2" fill="#c39a4b"></circle><circle cx="207.45803237858033" cy="165.51724137931035" r="2.2" fill="#c39a4b"></circle><circle cx="211.58655043586552" cy="158.18965517241378" r="2.2" fill="#c39a4b"></circle><circle cx="215.45703611457037" cy="127.58620689655173" r="2.2" fill="#c39a4b"></circle><circle cx="219.32752179327522" cy="105.17241379310343" r="2.2" fill="#c39a4b"></circle><circle cx="223.19800747198008" cy="118.5344827586207" r="2.2" fill="#c39a4b"></circle><circle cx="227.32652552926524" cy="111.63793103448275" r="2.2" fill="#c39a4b"></circle><circle cx="227.58455790784558" cy="110.77586206896554" r="2.2" fill="#c39a4b"></circle><circle cx="231.19701120797012" cy="58.62068965517242" r="2.2" fill="#c39a4b"></circle><circle cx="231.45504358655043" cy="50.431034482758626" r="2.2" fill="#c39a4b"></circle><circle cx="233.77733499377334" cy="87.5" r="2.2" fill="#c39a4b"></circle><circle cx="235.06749688667497" cy="80.17241379310344" r="2.2" fill="#c39a4b"></circle><circle cx="238.93798256537983" cy="64.22413793103449" r="2.2" fill="#c39a4b"></circle><circle cx="243.06650062266502" cy="74.99999999999999" r="2.2" fill="#c39a4b"></circle><circle cx="243.32453300124533" cy="74.56896551724138" r="2.2" fill="#c39a4b"></circle><circle cx="246.93698630136984" cy="87.5" r="2.2" fill="#c39a4b"></circle><circle cx="250.03337484433374" cy="85.77586206896551" r="2.2" fill="#c39a4b"></circle><circle cx="259.83860523038607" cy="94.39655172413791" r="2.2" fill="#c39a4b"></circle><circle cx="262.9349937733499" cy="108.62068965517244" r="2.2" fill="#c39a4b"></circle><circle cx="266.2894146948941" cy="131.89655172413794" r="2.2" fill="#c39a4b"></circle><circle cx="270.4179327521793" cy="144.39655172413794" r="2.2" fill="#c39a4b"></circle><circle cx="931.4968866749689" cy="158.62068965517238" r="2.2" fill="#c39a4b"></circle><circle cx="932.5290161892901" cy="158.62068965517238" r="2.2" fill="#c39a4b"></circle><circle cx="932.7870485678706" cy="159.48275862068968" r="2.2" fill="#c39a4b"></circle><circle cx="933.8191780821917" cy="160.3448275862069" r="2.2" fill="#c39a4b"></circle><circle cx="937.4316313823163" cy="166.3793103448276" r="2.2" fill="#c39a4b"></circle><circle cx="937.9476961394769" cy="168.5344827586207" r="2.2" fill="#c39a4b"></circle><circle cx="938.4637608966376" cy="166.81034482758622" r="2.2" fill="#c39a4b"></circle><circle cx="940.2699875466999" cy="171.1206896551724" r="2.2" fill="#c39a4b"></circle><circle cx="941.3021170610211" cy="181.46551724137933" r="2.2" fill="#c39a4b"></circle><circle cx="941.5601494396014" cy="173.70689655172413" r="2.2" fill="#c39a4b"></circle><circle cx="942.0762141967621" cy="172.8448275862069" r="2.2" fill="#c39a4b"></circle><circle cx="943.1083437110834" cy="173.2758620689655" r="2.2" fill="#c39a4b"></circle><circle cx="946.720797011208" cy="177.1551724137931" r="2.2" fill="#c39a4b"></circle><circle cx="952.397509339975" cy="203.8793103448276" r="2.2" fill="#c39a4b"></circle><circle cx="956.2679950186799" cy="154.74137931034483" r="2.2" fill="#c39a4b"></circle><circle cx="961.9447073474471" cy="153.44827586206895" r="2.2" fill="#c39a4b"></circle><circle cx="969.6856787048569" cy="133.18965517241378" r="2.2" fill="#c39a4b"></circle><circle cx="976.9105853051058" cy="89.65517241379308" r="2.2" fill="#c39a4b"></circle><circle cx="977.6846824408468" cy="69.82758620689656" r="2.2" fill="#c39a4b"></circle><circle cx="983.1033623910337" cy="75.86206896551725" r="2.2" fill="#c39a4b"></circle><circle cx="987.4899128268992" cy="100" r="2.2" fill="#c39a4b"></circle><circle cx="990.586301369863" cy="68.53448275862067" r="2.2" fill="#c39a4b"></circle><circle cx="994.9728518057285" cy="67.67241379310346" r="2.2" fill="#c39a4b"></circle><circle cx="996.0049813200498" cy="61.20689655172415" r="2.2" fill="#c39a4b"></circle><circle cx="1004.7780821917809" cy="63.79310344827585" r="2.2" fill="#c39a4b"></circle><circle cx="1006.0682440846824" cy="57.32758620689654" r="2.2" fill="#c39a4b"></circle><circle cx="1011.7449564134496" cy="95.25862068965519" r="2.2" fill="#c39a4b"></circle><circle cx="1015.8734744707348" cy="107.32758620689656" r="2.2" fill="#c39a4b"></circle><circle cx="1019.227895392279" cy="112.93103448275862" r="2.2" fill="#c39a4b"></circle><circle cx="1023.3564134495642" cy="138.36206896551727" r="2.2" fill="#c39a4b"></circle><circle cx="1028.00099626401" cy="165.08620689655174" r="2.2" fill="#c39a4b"></circle><circle cx="1032.903611457036" cy="155.17241379310346" r="2.2" fill="#c39a4b"></circle><circle cx="1036" cy="179.31034482758622" r="2.2" fill="#c39a4b"></circle><path d="M0,179.31L0.258,174.138M7.741,182.759L11.611,178.017L14.966,175L18.836,159.483M26.835,164.655ZM38.705,128.879L38.963,117.241L42.575,126.293L46.446,127.586M54.445,104.31L54.703,93.966L58.315,96.983L62.444,111.207L66.314,123.707L70.185,111.638M78.442,182.328L82.054,166.81L85.925,186.207L86.183,184.052M196.105,185.776L199.975,195.69M211.587,181.466L215.457,150.862M223.198,143.534L227.327,143.534L227.585,144.828M231.455,90.948L233.777,112.5L235.067,118.103L238.938,97.414L243.067,97.414L243.325,104.741L246.937,106.466L250.033,115.086M262.935,146.983ZM931.497,189.655L932.529,182.759L932.787,180.172M937.432,172.414L937.948,172.414L938.464,186.638L940.27,189.655L941.302,189.655L941.56,180.172L942.076,178.448L943.108,183.621L946.721,184.914L952.398,212.931L956.268,173.276L961.945,172.414L969.686,155.172L976.911,128.448L977.685,96.983L983.103,122.845L987.49,122.414L990.586,100.862L994.973,99.138L996.005,107.759L1004.778,100L1006.068,105.172L1011.745,121.552L1015.873,136.207L1019.228,143.534L1023.356,155.172L1028.001,193.966M1036,200Z" fill="none" stroke="#3f6d8e" stroke-width="1.6" opacity="0.85"></path><circle cx="0" cy="179.31034482758622" r="2.2" fill="#3f6d8e"></circle><circle cx="0.2580323785803238" cy="174.13793103448273" r="2.2" fill="#3f6d8e"></circle><circle cx="7.740971357409714" cy="182.75862068965517" r="2.2" fill="#3f6d8e"></circle><circle cx="11.61145703611457" cy="178.01724137931035" r="2.2" fill="#3f6d8e"></circle><circle cx="14.96587795765878" cy="175" r="2.2" fill="#3f6d8e"></circle><circle cx="18.836363636363636" cy="159.48275862068968" r="2.2" fill="#3f6d8e"></circle><circle cx="26.835367372353673" cy="164.6551724137931" r="2.2" fill="#3f6d8e"></circle><circle cx="38.70485678704856" cy="128.8793103448276" r="2.2" fill="#3f6d8e"></circle><circle cx="38.962889165628894" cy="117.24137931034481" r="2.2" fill="#3f6d8e"></circle><circle cx="42.57534246575342" cy="126.29310344827587" r="2.2" fill="#3f6d8e"></circle><circle cx="46.44582814445828" cy="127.58620689655173" r="2.2" fill="#3f6d8e"></circle><circle cx="54.44483188044832" cy="104.31034482758622" r="2.2" fill="#3f6d8e"></circle><circle cx="54.702864259028644" cy="93.9655172413793" r="2.2" fill="#3f6d8e"></circle><circle cx="58.31531755915318" cy="96.98275862068967" r="2.2" fill="#3f6d8e"></circle><circle cx="62.443835616438356" cy="111.20689655172414" r="2.2" fill="#3f6d8e"></circle><circle cx="66.31432129514322" cy="123.70689655172413" r="2.2" fill="#3f6d8e"></circle><circle cx="70.18480697384807" cy="111.63793103448275" r="2.2" fill="#3f6d8e"></circle><circle cx="78.44184308841844" cy="182.32758620689654" r="2.2" fill="#3f6d8e"></circle><circle cx="82.05429638854297" cy="166.81034482758622" r="2.2" fill="#3f6d8e"></circle><circle cx="85.92478206724782" cy="186.20689655172413" r="2.2" fill="#3f6d8e"></circle><circle cx="86.18281444582814" cy="184.05172413793102" r="2.2" fill="#3f6d8e"></circle><circle cx="196.10460772104608" cy="185.77586206896552" r="2.2" fill="#3f6d8e"></circle><circle cx="199.97509339975093" cy="195.6896551724138" r="2.2" fill="#3f6d8e"></circle><circle cx="211.58655043586552" cy="181.46551724137933" r="2.2" fill="#3f6d8e"></circle><circle cx="215.45703611457037" cy="150.86206896551724" r="2.2" fill="#3f6d8e"></circle><circle cx="223.19800747198008" cy="143.5344827586207" r="2.2" fill="#3f6d8e"></circle><circle cx="227.32652552926524" cy="143.5344827586207" r="2.2" fill="#3f6d8e"></circle><circle cx="227.58455790784558" cy="144.82758620689657" r="2.2" fill="#3f6d8e"></circle><circle cx="231.45504358655043" cy="90.94827586206897" r="2.2" fill="#3f6d8e"></circle><circle cx="233.77733499377334" cy="112.50000000000001" r="2.2" fill="#3f6d8e"></circle><circle cx="235.06749688667497" cy="118.10344827586205" r="2.2" fill="#3f6d8e"></circle><circle cx="238.93798256537983" cy="97.41379310344827" r="2.2" fill="#3f6d8e"></circle><circle cx="243.06650062266502" cy="97.41379310344827" r="2.2" fill="#3f6d8e"></circle><circle cx="243.32453300124533" cy="104.74137931034483" r="2.2" fill="#3f6d8e"></circle><circle cx="246.93698630136984" cy="106.46551724137932" r="2.2" fill="#3f6d8e"></circle><circle cx="250.03337484433374" cy="115.08620689655172" r="2.2" fill="#3f6d8e"></circle><circle cx="262.9349937733499" cy="146.98275862068965" r="2.2" fill="#3f6d8e"></circle><circle cx="931.4968866749689" cy="189.65517241379308" r="2.2" fill="#3f6d8e"></circle><circle cx="932.5290161892901" cy="182.75862068965517" r="2.2" fill="#3f6d8e"></circle><circle cx="932.7870485678706" cy="180.17241379310346" r="2.2" fill="#3f6d8e"></circle><circle cx="937.4316313823163" cy="172.41379310344828" r="2.2" fill="#3f6d8e"></circle><circle cx="937.9476961394769" cy="172.41379310344828" r="2.2" fill="#3f6d8e"></circle><circle cx="938.4637608966376" cy="186.63793103448276" r="2.2" fill="#3f6d8e"></circle><circle cx="940.2699875466999" cy="189.65517241379308" r="2.2" fill="#3f6d8e"></circle><circle cx="941.3021170610211" cy="189.65517241379308" r="2.2" fill="#3f6d8e"></circle><circle cx="941.5601494396014" cy="180.17241379310346" r="2.2" fill="#3f6d8e"></circle><circle cx="942.0762141967621" cy="178.44827586206895" r="2.2" fill="#3f6d8e"></circle><circle cx="943.1083437110834" cy="183.6206896551724" r="2.2" fill="#3f6d8e"></circle><circle cx="946.720797011208" cy="184.91379310344828" r="2.2" fill="#3f6d8e"></circle><circle cx="952.397509339975" cy="212.93103448275863" r="2.2" fill="#3f6d8e"></circle><circle cx="956.2679950186799" cy="173.2758620689655" r="2.2" fill="#3f6d8e"></circle><circle cx="961.9447073474471" cy="172.41379310344828" r="2.2" fill="#3f6d8e"></circle><circle cx="969.6856787048569" cy="155.17241379310346" r="2.2" fill="#3f6d8e"></circle><circle cx="976.9105853051058" cy="128.44827586206898" r="2.2" fill="#3f6d8e"></circle><circle cx="977.6846824408468" cy="96.98275862068967" r="2.2" fill="#3f6d8e"></circle><circle cx="983.1033623910337" cy="122.8448275862069" r="2.2" fill="#3f6d8e"></circle><circle cx="987.4899128268992" cy="122.41379310344827" r="2.2" fill="#3f6d8e"></circle><circle cx="990.586301369863" cy="100.86206896551725" r="2.2" fill="#3f6d8e"></circle><circle cx="994.9728518057285" cy="99.13793103448276" r="2.2" fill="#3f6d8e"></circle><circle cx="996.0049813200498" cy="107.75862068965516" r="2.2" fill="#3f6d8e"></circle><circle cx="1004.7780821917809" cy="100" r="2.2" fill="#3f6d8e"></circle><circle cx="1006.0682440846824" cy="105.17241379310343" r="2.2" fill="#3f6d8e"></circle><circle cx="1011.7449564134496" cy="121.55172413793103" r="2.2" fill="#3f6d8e"></circle><circle cx="1015.8734744707348" cy="136.20689655172413" r="2.2" fill="#3f6d8e"></circle><circle cx="1019.227895392279" cy="143.5344827586207" r="2.2" fill="#3f6d8e"></circle><circle cx="1023.3564134495642" cy="155.17241379310346" r="2.2" fill="#3f6d8e"></circle><circle cx="1028.00099626401" cy="193.9655172413793" r="2.2" fill="#3f6d8e"></circle><circle cx="1036" cy="200" r="2.2" fill="#3f6d8e"></circle></g></g><g transform="translate(32,1505)"><rect x="0" y="-10" width="11" height="11" rx="3" fill="#b3452e"></rect><text x="17" y="0" font-size="11" fill="#79695a">TMAX (real daily)</text><rect x="220" y="-10" width="11" height="11" rx="3" fill="#c39a4b"></rect><text x="237" y="0" font-size="11" fill="#79695a">TAVG (real daily)</text><rect x="440" y="-10" width="11" height="11" rx="3" fill="#3f6d8e"></rect><text x="457" y="0" font-size="11" fill="#79695a">TMIN (real daily)</text></g><g transform="translate(32,1551)"><text x="0" y="0" font-family="Georgia, 'Times New Roman', serif" font-size="17" fill="#2b241c">Invisible Site Factors</text><text x="0" y="20" font-family="Arial, Helvetica, sans-serif" font-size="12" fill="#79695a">Real, sourced measurements only. AQI was checked against every reachable air-quality API — none exist for this</text><text x="0" y="36" font-family="Arial, Helvetica, sans-serif" font-size="12" fill="#79695a">location in this environment, so that layer is omitted.</text></g><g transform="translate(32,1613)"><rect width="361.3333333333333" height="195" fill="#fbf7ef" stroke="#d9cdb8" rx="10"></rect><text x="16" y="26" font-family="Georgia, serif" font-size="13.5" fill="#2b241c">Daylight — 25 Jun 2019</text><text x="16" y="54" font-size="19" font-weight="700" fill="#b3452e">14:45:02</text><text x="16" y="68" font-size="8.6" fill="#79695a">DAY LENGTH (REAL ASTRO. CALC.)</text><text x="16" y="90" font-size="10" fill="#2b241c">Sunrise:</text><text x="96" y="90" font-size="10" fill="#79695a">05:11:23</text><text x="16" y="105" font-size="10" fill="#2b241c">Sunset:</text><text x="96" y="105" font-size="10" fill="#79695a">19:56:25</text><text x="16" y="120" font-size="10" fill="#2b241c">Solar noon:</text><text x="96" y="120" font-size="10" fill="#79695a">12:33:56</text><text x="16" y="135" font-size="10" fill="#2b241c">Source:</text><text x="96" y="135" font-size="10" fill="#79695a">sunrisesunset.io API</text></g><g transform="translate(409.3333333333333,1613)"><rect width="361.3333333333333" height="195" fill="#fbf7ef" stroke="#d9cdb8" rx="10"></rect><text x="16" y="26" font-family="Georgia, serif" font-size="13.5" fill="#2b241c">Topography</text><text x="16" y="54" font-size="19" font-weight="700" fill="#b3452e">382–391m</text><text x="16" y="68" font-size="8.6" fill="#79695a">ELEVATION, 4 INDEPENDENT SOURCES</text><text x="16" y="90" font-size="10" fill="#2b241c">Open-Elevation:</text><text x="96" y="90" font-size="10" fill="#79695a">388.0 m</text><text x="16" y="105" font-size="10" fill="#2b241c">SRTM 90m:</text><text x="96" y="105" font-size="10" fill="#79695a">391.0 m</text><text x="16" y="120" font-size="10" fill="#2b241c">ASTER 30m:</text><text x="96" y="120" font-size="10" fill="#79695a">386.0 m</text><text x="16" y="135" font-size="10" fill="#2b241c">sunrisesunset.io:</text><text x="96" y="135" font-size="10" fill="#79695a">382 m</text></g><g transform="translate(786.6666666666666,1613)"><rect width="361.3333333333333" height="195" fill="#fbf7ef" stroke="#d9cdb8" rx="10"></rect><text x="16" y="26" font-family="Georgia, serif" font-size="13.5" fill="#2b241c">Night Light Loss (city-scale)</text><text x="16" y="54" font-size="19" font-weight="700" fill="#b3452e">↓ up to 80%</text><text x="16" y="68" font-size="8.6" fill="#79695a">SYRIA-WIDE, VOA 2015 EST. (CITED BY NASA)</text><text x="16" y="90" font-size="9.5" fill="#79695a">NASA Earth Observatory VIIRS Day/Night</text><text x="16" y="105" font-size="9.5" fill="#79695a">Band composites (2012 vs 2016) show</text><text x="16" y="120" font-size="9.5" fill="#79695a">Aleppo among the most dramatic</text><text x="16" y="135" font-size="9.5" fill="#79695a">nighttime-light losses in the Middle</text><text x="16" y="150" font-size="9.5" fill="#79695a">East during the conflict; a cited 2015</text></g><g transform="translate(32,1838)"><text x="0" y="0" font-family="Georgia, 'Times New Roman', serif" font-size="17" fill="#2b241c">CAD Cross-Validation — FLS1615 vs. Damage Report</text><text x="0" y="20" font-family="Arial, Helvetica, sans-serif" font-size="12" fill="#79695a">Geometry measured directly from the DXF (units confirmed via an in-file scale bar reading 0/5/10 m), checked against</text><text x="0" y="36" font-family="Arial, Helvetica, sans-serif" font-size="12" fill="#79695a">the report's stated dimensions.</text></g><g transform="translate(32,1900)"><rect width="1116" height="250" fill="#fbf7ef" rx="10"></rect><rect width="1116" height="30" fill="#efe4d0" rx="10"></rect><rect y="20" width="1116" height="10" fill="#efe4d0"></rect><text x="14" y="20" font-size="11" font-weight="700" fill="#2b241c">Element</text><text x="209" y="20" font-size="11" font-weight="700" fill="#2b241c">Report value</text><text x="354" y="20" font-size="11" font-weight="700" fill="#2b241c">DXF value</text><text x="574" y="20" font-size="11" font-weight="700" fill="#2b241c">Match</text><text x="714" y="20" font-size="11" font-weight="700" fill="#2b241c">Notes</text><text x="14" y="47" font-size="10.5" fill="#79695a">Central dome diameter</text><text x="209" y="47" font-size="10.5" fill="#79695a">16 m</text><text x="354" y="47" font-size="10" fill="#79695a">15.2 m (arc radius 7.603 m x2)</text><rect x="574" y="34" width="77.6" height="17" rx="4" fill="#e3f0e8"></rect><text x="612.8" y="47" text-anchor="middle" font-size="9.5" font-weight="700" fill="#4f9c72">Close match</text><text x="714" y="47" font-size="9.8" fill="#79695a">DXF value measured to drawn arc; report likely</text><text x="714" y="60" font-size="9.8" fill="#79695a">nominal/outer-face figure</text><line x1="0" x2="1116" y1="74" y2="74" stroke="#d9cdb8"></line><text x="14" y="91" font-size="10.5" fill="#79695a">Portico domes</text><text x="209" y="91" font-size="10.5" fill="#79695a">5 domes, Ø5.6 m</text><text x="354" y="91" font-size="10" fill="#79695a">5 circles: one 4.85 m + four</text><text x="354" y="104" font-size="10" fill="#79695a">5.22 m</text><rect x="574" y="78" width="77.6" height="17" rx="4" fill="#e3f0e8"></rect><text x="612.8" y="91" text-anchor="middle" font-size="9.5" font-weight="700" fill="#4f9c72">Close match</text><text x="714" y="91" font-size="9.8" fill="#79695a">Same count (5); diameters within ~7-13% of</text><text x="714" y="104" font-size="9.8" fill="#79695a">report figure</text><line x1="0" x2="1116" y1="118" y2="118" stroke="#d9cdb8"></line><text x="14" y="135" font-size="10.5" fill="#79695a">Buttresses</text><text x="209" y="135" font-size="10.5" fill="#79695a">8 external</text><text x="209" y="148" font-size="10.5" fill="#79695a">buttresses</text><text x="354" y="135" font-size="10" fill="#79695a">Not present in DXF export</text><text x="354" y="148" font-size="10" fill="#79695a">(BUTTRESS layer exists but has 0</text><rect x="574" y="122" width="94.39999999999999" height="17" rx="4" fill="#f3e2dc"></rect><text x="621.2" y="135" text-anchor="middle" font-size="9.5" font-weight="700" fill="#b3452e">Not verifiable</text><text x="714" y="135" font-size="9.8" fill="#79695a">Layer defined but geometry not included in</text><text x="714" y="148" font-size="9.8" fill="#79695a">this export</text><line x1="0" x2="1116" y1="162" y2="162" stroke="#d9cdb8"></line><text x="14" y="179" font-size="10.5" fill="#79695a">Fountain</text><text x="209" y="179" font-size="10.5" fill="#79695a">Wooden roof of</text><text x="209" y="192" font-size="10.5" fill="#79695a">fountain damaged</text><text x="354" y="179" font-size="10" fill="#79695a">Footprint approx 4.3 m x 4.6 m</text><text x="354" y="192" font-size="10" fill="#79695a">on FOUNTAIN layer</text><rect x="574" y="166" width="72" height="17" rx="4" fill="#e3f0e8"></rect><text x="610" y="179" text-anchor="middle" font-size="9.5" font-weight="700" fill="#4f9c72">Consistent</text><text x="714" y="179" font-size="9.8" fill="#79695a">Size plausible for a courtyard ablution</text><text x="714" y="192" font-size="9.8" fill="#79695a">fountain</text><line x1="0" x2="1116" y1="206" y2="206" stroke="#d9cdb8"></line><text x="14" y="223" font-size="10.5" fill="#79695a">Portico columns</text><text x="209" y="223" font-size="10.5" fill="#79695a">Double arcade, 11x3</text><text x="209" y="236" font-size="10.5" fill="#79695a">external bays + 5</text><text x="354" y="223" font-size="10" fill="#79695a">25 circular columns across 3</text><text x="354" y="236" font-size="10" fill="#79695a">diameter classes (0.7 m / 0.5 m</text><rect x="574" y="210" width="72" height="17" rx="4" fill="#e3f0e8"></rect><text x="610" y="223" text-anchor="middle" font-size="9.5" font-weight="700" fill="#4f9c72">Consistent</text><text x="714" y="223" font-size="9.8" fill="#79695a">0.7 m columns = main arcade row (7 counted);</text><text x="714" y="236" font-size="9.8" fill="#79695a">0.3 m columns cluster directly over fountain</text><text x="714" y="249" font-size="9.8" fill="#79695a">footprint = canopy</text></g><g transform="translate(32,2170)"><line x1="0" y1="0" x2="1116" y2="0" stroke="#d9cdb8"></line><text x="0" y="22" font-family="Arial, Helvetica, sans-serif" font-size="11" fill="#79695a">Sources: Rapid Damage Assessment — Jami' al-'Adiliyya, 25.06.2019, Haddad/Ballouz/Alafandi/Rieffel, Museum for Islamic Art Berlin,</text><text x="0" y="38" font-family="Arial, Helvetica, sans-serif" font-size="11" fill="#79695a">Syrian Heritage Archive Project, Gerda Henkel Stiftung Aleppo Heritage Catalogue (CC BY-NC-SA 4.0) · CAD survey FLS1615 (DXF export)</text><text x="0" y="54" font-family="Arial, Helvetica, sans-serif" font-size="11" fill="#79695a">Wikipedia: Al-Adiliyah Mosque · NOAA NCEI GHCN daily-summaries, station SYE00147760 · Open-Elevation API · OpenTopoData API</text><text x="0" y="70" font-family="Arial, Helvetica, sans-serif" font-size="11" fill="#79695a">(SRTM90m / ASTER30m) · sunrisesunset.io API · NASA Earth Observatory "Night Lights Change in the Middle East" (2017), VIIRS data.</text><text x="0" y="86" font-family="Arial, Helvetica, sans-serif" font-size="11" fill="#79695a">AQI intentionally omitted — no real source was reachable.</text></g></svg>